<svg width="5" height="20" viewBox="0 0 5 20" fill="none" xmlns="http://www.w3.org/2000/svg">
<path fill-rule="evenodd" clip-rule="evenodd" d="M3.07382 19.9059C4.42724 19.5435 5.15651 17.7835 4.53618 16.3766C3.62196 14.3032 0.779268 14.6326 0.302808 16.8671C-0.0934628 18.7256 1.39325 20.3559 3.07382 19.9059ZM3.07382 12.442C4.63122 12.025 5.27913 9.86545 4.27239 8.44716C3.1361 6.84624 0.724189 7.42718 0.302808 9.40319C-0.0934621 11.2617 1.39325 12.892 3.07382 12.442ZM3.07382 4.97801C4.42724 4.61562 5.15651 2.85557 4.53618 1.44872C3.62196 -0.62467 0.779269 -0.29526 0.302809 1.93924C-0.0934614 3.79772 1.39325 5.42804 3.07382 4.97801Z" fill="#353535"/>
</svg>
